<svg width="120" height="100" viewBox="0 0 120 100" fill="none" xmlns="http://www.w3.org/2000/svg">
    <g id="triangles">
        <g id="darkGroup">
            <path 
                id="dark2" 
                d="M49.6548 49.1456C50.3246 49.525 50.3324 50.4872 49.6689 50.8776L22.797 66.6858C22.1335 67.0761 21.2962 66.6018 21.29 65.832L21.0356 34.6561C21.0293 33.8864 21.8587 33.3985 22.5285 33.7779L49.6548 49.1456Z" 
                fill="#C10000" 
                fill-opacity="0.7"
            />
            <path 
                id="dark1" 
                d="M39.1333 49.1456C39.8031 49.525 39.8109 50.4872 39.1474 50.8776L12.2755 66.6858C11.612 67.0761 10.7748 66.6018 10.7685 65.832L10.5141 34.6561C10.5079 33.8864 11.3372 33.3985 12.007 33.7779L39.1333 49.1456Z" 
                fill="#C10000" 
                fill-opacity="0.7"
            />
        </g>
        <g id="lightGroup">
            <path 
                id="light1" 
                d="M38.6548 49.1456C39.3246 49.525 39.3325 50.4872 38.669 50.8776L11.797 66.6858C11.1335 67.0761 10.2963 66.6018 10.29 65.832L10.0357 34.6561C10.0294 33.8864 10.8588 33.3985 11.5285 33.7779L38.6548 49.1456Z" 
                fill="#FF2525" 
                fill-opacity="0.7"
            />
        </g>
    </g>
</svg>
